<?xml version="1.0" encoding="UTF-8" standalone="no"?>
<svg id="svg2" xmlns="http://www.w3.org/2000/svg" viewBox="0 0 900 900" version="1.1">
<g id="g4" fill="none" transform="matrix(1.7656463,0,0,1.7656463,324.90716,255.00942)">
  <g id="g6" stroke-width="0.17200001" stroke="#000" fill="#FFF">
   <path id="path8" d="m-122.3,84.285s0.1,1.894-0.73,1.875c-0.82-0.019-17.27-48.094-37.8-45.851,0,0,17.78-7.353,38.53,43.976z"/>
  </g>
  <g id="g10" stroke-width="0.17200001" stroke="#000" fill="#FFF">
   <path id="path12" d="m-118.77,81.262s-0.55,1.816-1.32,1.517c-0.77-0.298,0.11-51.104-19.95-55.978,0,0,19.22-0.864,21.27,54.461z"/>
  </g>
  <g id="g14" stroke-width="0.17200001" stroke="#000" fill="#FFF">
   <path id="path16" d="m-91.284,123.59s1.636,0.96,1.166,1.64c-0.471,0.67-49.642-12.13-59.102,6.23,0,0,3.68-18.89,57.936-7.87z"/>
  </g>
</g>
</svg>
