<?xml version="1.0" encoding="UTF-8" standalone="no"?>
<svg id="svg2" xmlns="http://www.w3.org/2000/svg" viewBox="0 0 900 900" version="1.1">
 <g id="g4" fill="none" transform="matrix(1.7656463,0,0,1.7656463,324.90716,255.00942)">
 <g id="g6" stroke-width="0.17200001" stroke="#000" fill="#FFF">
   <path id="path8" d="m-122.3,84.285s0.1,1.894-0.73,1.875c-0.82-0.019-17.27-48.094-37.8-45.851,0,0,17.78-7.353,38.53,43.976z"/>
  </g>
  <!-- <g id="g10" stroke-width="0.17200001" stroke="#000" fill="#FFF">
   <path id="path12" d="m-118.77,81.262s-0.55,1.816-1.32,1.517c-0.77-0.298,0.11-51.104-19.95-55.978,0,0,19.22-0.864,21.27,54.461z"/>
  </g> -->
  <!-- <g id="g14" stroke-width="0.17200001" stroke="#000" fill="#FFF">
   <path id="path16" d="m-91.284,123.59s1.636,0.96,1.166,1.64c-0.471,0.67-49.642-12.13-59.102,6.23,0,0,3.68-18.89,57.936-7.87z"/>
  </g> -->
  <!-- <g id="g18" stroke-width="0.17200001" stroke="#000" fill="#FFF">
   <path id="path20" d="m-94.093,133.8s1.856,0.4,1.622,1.19c-0.233,0.79-50.939,4.13-54.129,24.53,0,0-2.46-19.08,52.507-25.72z"/>
  </g> -->
<!-- <g id="g66" fill="#e87f3a">
   <path id="path68" d="m133.51,25.346c-6.4,0.8-31.77-22.939-16.8,8.8,16.6,35.2-58.4,39.2-75.2,28-16.801-11.2,7.2,18.4,7.2,18.4,18.4,20.004-16.001,3.2-16.001,3.2-34.4-12.8-58.4,12.8-61.6,13.6s-8,4.004-8.8-2.4c-0.8-6.4-8.179-22.934-40,3.2-21.236,17.344-34.729-4.109-34.729-4.109l-3.2,10.113c-25-39.804-9.93,18.51-9.93,18.51,8.81,34.4,139.06-4.51,139.06-4.51s168.8-30.404,180-34.404,105.53,2.327,105.53,2.327l-5.53-17.309c-64.8-46.4-83.2-22.618-96.8-26.618s-11.2,5.6-14.4,6.4-42.4-24-48.8-23.2z"/>
  </g>
  <g id="g70" fill="#ea8c4d">
   <path id="path72" d="m134.82,27.091c-6.4,0.8-31.14-23.229-16.8,8.8,16.2,36.201-58.401,39.201-75.201,28.001s7.2,18.4,7.2,18.4c18.4,19.998-16,3.2-16,3.2-34.4-12.8-58.401,12.8-61.601,13.6s-8,3.998-8.8-2.4c-0.8-6.4-8.048-22.767-40,3.2-22.473,18.088-35.658-2.818-35.658-2.818l-3.6,8.616c-23.8-38.998-9.25,20.02-9.25,20.02,8.8,34.4,139.71-5.82,139.71-5.82s168.8-30.398,180-34.398,104.65,2.254,104.65,2.254l-5.45-17.818c-64.8-46.4-82.4-22.037-96-26.037s-11.2,5.6-14.4,6.401c-3.2,0.8-42.4-24.001-48.8-23.201z"/>
  </g>
  <g id="g74" fill="#ec9961">
   <path id="path76" d="m136.13,28.837c-6.4,0.8-31.13-23.232-16.8,8.8,16.8,37.556-58.936,38.845-75.202,28-16.8-11.2,7.2,18.4,7.2,18.4,18.4,20.003-16,3.2-16,3.2-34.4-12.8-58.4,12.803-61.6,13.603s-8,4-8.8-2.403c-0.8-6.4-7.917-22.598-40.001,3.203-23.709,18.83-36.587-1.53-36.587-1.53l-4,7.13c-21.8-36.803-8.58,21.52-8.58,21.52,8.8,34.4,140.37-7.12,140.37-7.12s168.8-30.403,180-34.403,103.78,2.182,103.78,2.182l-5.38-18.327c-64.8-46.401-81.6-21.455-95.2-25.455s-11.2,5.6-14.4,6.4-42.4-24-48.8-23.2z"/>
  </g>
  <g id="g78" fill="#eea575">
   <path id="path80" d="m137.44,30.583c-6.4,0.8-30.63-23.454-16.8,8.8,16.8,39.2-58.403,39.2-75.203,28s7.2,18.4,7.2,18.4c18.4,19.997-16,3.2-16,3.2-34.4-12.8-58.4,12.797-61.6,13.597s-8,4-8.8-2.4c-0.8-6.397-7.785-22.428-40,3.2-24.946,19.58-37.507-0.23-37.507-0.23l-4.4,5.63c-19.8-34.798-7.91,23.04-7.91,23.04,8.8,34.4,141.02-8.44,141.02-8.44s168.8-30.397,180-34.397,102.91,2.109,102.91,2.109l-5.31-18.837c-64.8-46.4-80.8-20.872-94.4-24.872s-11.2,5.6-14.4,6.4-42.4-24-48.8-23.2z"/>
  </g>
  <g id="g82" fill="#f1b288">
   <path id="path84" d="m138.75,32.328c-6.4,0.8-32.37-22.651-16.8,8.8,19.2,38.8-58.404,39.2-75.204,28s7.2,18.4,7.2,18.4c18.4,20.002-16,3.2-16,3.2-34.4-12.8-58.4,12.802-61.6,13.602s-8,4-8.8-2.4c-0.8-6.402-7.654-22.265-40,3.2-26.182,20.33-38.436,1.05-38.436,1.05l-4.8,4.15c-18-33.202-7.24,24.54-7.24,24.54,8.8,34.4,141.68-9.74,141.68-9.74s168.8-30.402,180-34.402,102.03,2.036,102.03,2.036l-5.23-19.345c-64.8-46.4-80-20.291-93.6-24.291s-11.2,5.6-14.4,6.4-42.4-24-48.8-23.2z"/>
  </g>
  <g id="g86" fill="#f3bf9c">
   <path id="path88" d="m140.06,34.073c-6.4,0.8-32.75-22.46-16.8,8.8,20.4,40.001-58.405,39.201-75.205,28.001s7.2,18.4,7.2,18.4c18.4,19.996-16,3.2-16,3.2-34.4-12.8-58.4,12.796-61.6,13.596s-8,4-8.8-2.4c-0.8-6.396-7.523-22.092-40,3.2-27.419,21.08-39.365,2.35-39.365,2.35l-5.2,2.65c-16-30.196-6.56,26.06-6.56,26.06,8.8,34.4,142.32-11.06,142.32-11.06s168.8-30.396,180-34.396,101.16,1.963,101.16,1.963l-5.16-19.854c-64.8-46.4-79.2-19.709-92.8-23.709-13.6-4.001-11.2,5.6-14.4,6.4s-42.4-24.001-48.8-23.201z"/>
  </g>
  <g id="g90" fill="#f5ccb0">
   <path id="path92" d="m141.36,35.819c-6.4,0.8-33.84-21.875-16.8,8.8,22,39.6-58.396,39.2-75.196,28s7.2,18.4,7.2,18.4c18.4,20.001-16,3.2-16,3.2-34.4-12.8-58.4,12.801-61.6,13.601s-8,4-8.8-2.4c-0.8-6.401-7.391-21.928-40,3.2-28.655,21.82-40.294,3.64-40.294,3.64l-5.6,1.16c-14.4-28.401-5.89,27.56-5.89,27.56,8.8,34.4,142.98-12.36,142.98-12.36s168.8-30.401,180-34.401,100.3,1.891,100.3,1.891l-5.1-20.364c-64.8-46.4-78.4-19.127-92-23.127s-11.2,5.6-14.4,6.4-42.4-24-48.8-23.2z"/>
  </g>
  <g id="g94" fill="#f8d8c4">
   <path id="path96" d="m142.67,37.565c-6.4,0.8-33.84-21.876-16.8,8.8,22,39.6-58.396,39.2-75.196,28s7.2,18.4,7.2,18.4c18.4,19.995-16,3.2-16,3.2-34.401-12.8-58.401,12.795-61.601,13.595s-8,4-8.8-2.4-7.259-21.755-40,3.2c-29.891,22.57-41.213,4.93-41.213,4.93l-6-0.33c-13.61-26.396-5.22,29.08-5.22,29.08,8.8,34.4,143.63-13.68,143.63-13.68s168.8-30.395,180-34.395,99.42,1.818,99.42,1.818l-5.01-20.873c-64.81-46.4-77.61-18.545-91.21-22.545s-11.2,5.6-14.4,6.4-42.4-24-48.8-23.2z"/>
  </g>
   <g id="g302" fill="#99cc32">
   <path id="path304" d="m47,36.514c-6.872,0-15.245-3.865-15.245-10.114,0-6.248,8.373-12.513,15.245-12.513,6.874,0,12.446,5.065,12.446,11.313,0,6.249-5.572,11.314-12.446,11.314z"/>
  </g>
  <g id="g306" fill="#659900">
   <path id="path308" d="m43.377,19.83c-4.846,0.722-9.935,2.225-9.863,2.009,1.54-4.619,7.901-7.952,13.486-7.952,4.296,0,8.084,1.978,10.32,4.988,0,0-5.316-0.33-13.943,0.955z"/>
  </g>
  <g id="g310" fill="#FFF">
   <path id="path312" d="m55.4,19.6s-4.4-3.2-4.4-1c0,0,3.6,4.4,4.4,1z"/>
  </g>
  <g id="g314" fill="#000">
   <path id="path316" d="m45.4,27.726c-2.499,0-4.525-2.026-4.525-4.526,0-2.499,2.026-4.525,4.525-4.525,2.5,0,4.526,2.026,4.526,4.525,0,2.5-2.026,4.526-4.526,4.526z"/>
  </g>
  <g id="g318" fill="#cc7226">
   <path id="path320" d="m-58.6,14.4s-3.2-21.2-0.8-25.6c0,0,10.8-10,10.4-13.6,0,0-0.4-18-1.6-18.8s-8.8-6.8-14.8-0.4c0,0-10.4,18-9.6,24.4v2s-7.6-0.4-9.2,1.6c0,0-1.2,5.2-2.4,5.6,0,0-2.8,2.4-0.8,5.2,0,0-2,2.4-1.6,6.4l7.6,4s2,14.4,12.8,19.6c4.836,2.329,8-4.4,10-10.4z"/>
  </g>
  <g id="g322" fill="#FFF">
   <path id="path324" d="m-59.6,12.56s-2.88-19.08-0.72-23.04c0,0,9.72-9,9.36-12.24,0,0-0.36-16.2-1.44-16.92s-7.92-6.12-13.32-0.36c0,0-9.36,16.2-8.64,21.96v1.8s-6.84-0.36-8.28,1.44c0,0-1.08,4.68-2.16,5.04,0,0-2.52,2.16-0.72,4.68,0,0-1.8,2.16-1.44,5.76l6.84,3.6s1.8,12.96,11.52,17.64c4.352,2.095,7.2-3.96,9-9.36z"/>
  </g>
  <g id="g326" fill="#eb955c">
   <path id="path328" d="m-51.05-42.61c-1.09-0.86-8.58-6.63-14.43-0.39,0,0-10.14,17.55-9.36,23.79v1.95s-7.41-0.39-8.97,1.56c0,0-1.17,5.07-2.34,5.46,0,0-2.73,2.34-0.78,5.07,0,0-1.95,2.34-1.56,6.24l7.41,3.9s1.95,14.04,12.48,19.11c4.714,2.27,7.8-4.29,9.75-10.14,0,0-3.12-20.67-0.78-24.96,0,0,10.53-9.75,10.14-13.26,0,0-0.39-17.55-1.56-18.33z"/>
  </g> -->
   </g>
</svg>
