<?xml version="1.0" encoding="UTF-8" standalone="no"?>
<svg id="svg2" xmlns="http://www.w3.org/2000/svg" viewBox="0 0 900 900" version="1.1">
    <g id="g4" fill="none" transform="matrix(1.7656463,0,0,1.7656463,324.90716,255.00942)">
        <g id="g6" stroke-width="0.17200001" stroke="#000" fill="#FFF">
            <path id="path8"
                d="m-122.3,84.285s0.1,1.894-0.73,1.875c-0.82-0.019-17.27-48.094-37.8-45.851,0,0,17.78-7.353,38.53,43.976z" />
        </g>
        <g id="g10" stroke-width="0.17200001" stroke="#000" fill="#FFF">
            <path id="path12"
                d="m-118.77,81.262s-0.55,1.816-1.32,1.517c-0.77-0.298,0.11-51.104-19.95-55.978,0,0,19.22-0.864,21.27,54.461z" />
        </g>
        <g id="g14" stroke-width="0.17200001" stroke="#000" fill="#FFF">
            <path id="path16"
                d="m-91.284,123.59s1.636,0.96,1.166,1.64c-0.471,0.67-49.642-12.13-59.102,6.23,0,0,3.68-18.89,57.936-7.87z" />
        </g>

        <g id="g18" stroke-width="0.17200001" stroke="#000" fill="#FFF">
            <path id="path20"
                d="m-94.093,133.8s1.856,0.4,1.622,1.19c-0.233,0.79-50.939,4.13-54.129,24.53,0,0-2.46-19.08,52.507-25.72z" />
        </g>
        <g id="g22" stroke-width="0.17200001" stroke="#000" fill="#FFF">
            <path id="path24"
                d="m-98.304,128.28s1.778,0.66,1.432,1.41-50.998-3.34-57.128,16.37c0,0,0.35-19.24,55.696-17.78z" />
        </g>
        <g id="g26" stroke-width="0.17200001" stroke="#000" fill="#FFF">
            <path id="path28"
                d="m-109.01,110.07s1.31,1.38,0.67,1.9-44.38-25.336-58.53-10.29c0,0,8.74-17.147,57.86,8.39z" />
        </g>
        <g id="g30" stroke-width="0.17200001" stroke="#000" fill="#FFF">
            <path id="path32"
                d="m-116.55,114.26s1.45,1.22,0.88,1.81c-0.58,0.59-46.97-20.148-59.32-3.6,0,0,6.74-18.023,58.44,1.79z" />
        </g>
        <g id="g34" stroke-width="0.17200001" stroke="#000" fill="#FFF">
            <path id="path36"
                d="m-119.15,118.34s1.6,1,1.11,1.67c-0.49,0.66-49.27-13.56-59.25,4.51,0,0,4.22-18.77,58.14-6.18z" />
        </g>

        <g id="g38" stroke-width="0.17200001" stroke="#000" fill="#FFF">
            <path id="path40"
                d="m-108.42,118.95s1.12,1.53,0.42,1.97c-0.7,0.43-40.77-30.818-56.73-17.71,0,0,10.87-15.884,56.31,15.74z" />
        </g>
        <g id="g42" stroke-width="0.17200001" stroke="#000" fill="#FFF">
            <path id="path44"
                d="m-128.2,90s0.6,1.8-0.2,2-29.4-41.8-48.6-34.2c0,0,15.2-11.8,48.8,32.2z" />
        </g>
        <g id="g46" stroke-width="0.17200001" stroke="#000" fill="#FFF">
            <path id="path48"
                d="m-127.5,96.979s0.97,1.629,0.23,1.996c-0.74,0.368-37.72-34.476-54.83-22.914,0,0,12.3-14.8,54.6,20.918z" />
        </g>

        <g id="g50" stroke-width="0.17200001" stroke="#000" fill="#FFF">
            <path id="path52"
                d="m-127.62,101.35s1.12,1.53,0.42,1.97c-0.7,0.43-40.77-30.818-56.73-17.713,0,0,10.87-15.881,56.31,15.743z" />
        </g>
        <g id="g54" stroke="#000" fill="#FFF">
            <path id="path56"
                d="m-129.83,103.06c0.5,6.05,1.49,12.62,3.23,15.74,0,0-3.6,12.4,5.2,25.6,0,0-0.4,7.2,1.2,10.4,0,0,4,8.4,8.8,9.2,3.88,0.65,12.607,3.72,22.468,5.12,0,0,17.132,14.08,13.932,26.88,0,0-0.4,16.4-4,18,0,0,11.6-11.2,2,5.6l-4.4,18.8s25.6-21.6,10-3.2l-10,26s19.6-18.4,12.4-10l-3.2,8.8s43.2-27.2,12.4,2.4c0,0,8-3.6,12.4-0.8,0,0,6.8-1.2,6,0.4,0,0-20.8,10.4-24.4,28.8,0,0,8.4-10,5.2,0.8l0.4,11.6s4-21.6,3.6,16c0,0,19.2-18,7.6,2.8v16.8s15.2-16.4,8.8-3.6c0,0,10-8.8,6,6.4,0,0-0.8,10.4,3.6-0.8,0,0,16-30.6,10-4.4,0,0-0.8,19.2,4,4.4,0,0,0.4,10.4,9.6,17.6,0,0-1.2-50.8,11.6-14.8l4,16.4s2.8-9.2,2.4-14.4l8,8s15.2-22.8,12-9.6c0,0-7.6,16-6,20.8,0,0,16.8-34.8,18-36.4,0,0-2,42.4,8.8,6.4,0,0,5.6,12,2.8,16.4,0,0,8-8,7.2-11.2,0,0,4.6-8.2,7.4,5.4,0,0,1.8,9.4,3.4,6.2,0,0,4,24,5.2,1.2,0,0,1.6-13.6-5.6-25.2,0,0,0.8-3.2-2-7.2,0,0,13.6,21.6,6.4-7.2,0,0,11.201,8,12.401,8,0,0-13.601-23.2-4.801-18.4,0,0-5.2-10.4,12.801,1.6,0,0-16.001-16,1.6-6.4,0,0,7.999,6.4,0.4-3.6,0,0-14.401-16,7.599,2,0,0,11.6,16.4,12.4,19.2,0,0-10-29.2-14.4-32,0,0,8.4-36.4,49.6-20.8,0,0,6.8,17.2,11.2-1.2,0,0,12.8-6.4,24,21.2,0,0,4-13.6,3.2-16.4,0,0,6.8,1.2,6,0,0,0,13.2,4.4,14.4,3.6,0,0,6.8,6.8,7.2,3.2,0,0,9.2,2.8,7.2-0.8,0,0,8.8,15.6,9.2,19.2l2.4-14,2,2.8s1.6-7.6,0.8-8.8,20,6.8,24.8,27.6l2,8.4s6-14.8,4.4-18.8c0,0,5.2,0.8,5.6,5.2,0,0,4-23.2-0.8-29.2,0,0,4.4-0.8,5.6,2.8v-7.2s7.2,0.8,7.2-1.6c0,0,4.4-4,6.4,0.8,0,0-12.4-35.2,6-16,0,0,7.2,10.8,3.6-8s-7.6-20.4-2.8-20.8c0,0,0.8-3.6-1.2-5.2s1.2,0,1.2,0,4.8,4-0.4-18c0,0,6.4,1.6-5.6-27.6,0,0,2.8-2.4-1.2-10.8,0,0,8,4.4,10.8,2.8,0,0-0.4-1.6-3.6-5.6,0,0-21.6-54.8-1.2-32.8,0,0,11.85,13.55,5.45-9.25,0,0-9.11-24.009-8.33-28.305l-429.55,23.015z" />
        </g>
        <g id="g58" stroke="#000" fill="#cc7226">
            <path id="path60"
                d="m299.72,80.245c0.62,0.181,2.83,1.305,4.08,2.955,0,0,6.8,10.8,1.6-7.6,0,0-9.2-28.8-0.4-17.6,0,0,6,7.2,2.8-6.4-3.86-16.427-6.4-22.8-6.4-22.8s11.6,4.8-15.2-34.8l8.8,3.6s-19.6-39.6-41.2-44.8l-8-6s38.4-38,25.6-74.8c0,0-6.8-5.2-16.4,4,0,0-6.4,4.8-12.4,3.2,0,0-30.8,1.2-32.8,1.2s-36.8-37.2-102.4-19.6c0,0-5.2,2-9.599,0.8,0,0-18.401-16-67.201,6.8,0,0-10,2-11.6,2s-4.4,0-12.4,6.4-8.4,7.2-10.4,8.8c0,0-16.4,11.2-21.2,12,0,0-11.6,6.4-16,16.4l-3.6,1.2s-1.6,7.2-2,8.4c0,0-4.8,3.6-5.6,9.2,0,0-8.8,6-8.4,10.4,0,0-1.6,5.2-2.4,10,0,0-7.2,4.8-6.4,7.6,0,0-7.6,14-6.4,20.8,0,0-6.4-0.4-9.2,2,0,0-0.8,4.8-2.4,5.2,0,0-2.8,1.2-0.4,5.2,0,0-1.6,2.8-2,4.4,0,0,0.8,2.8-3.6,8.4,0,0-6.4,18.8-4.4,24,0,0,0.4,4.8-2.4,6.4,0,0-3.6-0.4,4.8,11.6,0,0,0.8,1.2-2.4,3.6,0,0-17.2,3.6-19.6,20,0,0-13.6,14.8-13.6,20,0,2.305,0.27,5.452,0.97,10.06,0,0-0.57,8.34,27.03,9.14s402.72-31.355,402.72-31.355z" />
        </g>
        <g id="g62" fill="#cc7226">
            <path id="path64"
                d="m-115.6,102.6c-25-39.4-10.6,17-10.6,17,8.8,34.4,138.4-3.2,138.4-3.2s168.8-30.4,180-34.4,106.4,2.4,106.4,2.4l-5.6-16.8c-64.8-46.4-84-23.2-97.6-27.2s-11.2,5.6-14.4,6.4-42.4-24-48.8-23.2-31.74-22.951-16.8,8.8c16,34-58.4,39.2-75.2,28s7.2,18.4,7.2,18.4c18.4,20-16,3.2-16,3.2-34.4-12.8-58.4,12.8-61.6,13.6s-8,4-8.8-2.4-8.31-23.101-40,3.2c-20,16.6-33.8-5.4-33.8-5.4l-2.8,11.6z" />
        </g>
        <g id="g66" fill="#e87f3a">
            <path id="path68"
                d="m133.51,25.346c-6.4,0.8-31.77-22.939-16.8,8.8,16.6,35.2-58.4,39.2-75.2,28-16.801-11.2,7.2,18.4,7.2,18.4,18.4,20.004-16.001,3.2-16.001,3.2-34.4-12.8-58.4,12.8-61.6,13.6s-8,4.004-8.8-2.4c-0.8-6.4-8.179-22.934-40,3.2-21.236,17.344-34.729-4.109-34.729-4.109l-3.2,10.113c-25-39.804-9.93,18.51-9.93,18.51,8.81,34.4,139.06-4.51,139.06-4.51s168.8-30.404,180-34.404,105.53,2.327,105.53,2.327l-5.53-17.309c-64.8-46.4-83.2-22.618-96.8-26.618s-11.2,5.6-14.4,6.4-42.4-24-48.8-23.2z" />
        </g>
        <g id="g70" fill="#ea8c4d">
            <path id="path72"
                d="m134.82,27.091c-6.4,0.8-31.14-23.229-16.8,8.8,16.2,36.201-58.401,39.201-75.201,28.001s7.2,18.4,7.2,18.4c18.4,19.998-16,3.2-16,3.2-34.4-12.8-58.401,12.8-61.601,13.6s-8,3.998-8.8-2.4c-0.8-6.4-8.048-22.767-40,3.2-22.473,18.088-35.658-2.818-35.658-2.818l-3.6,8.616c-23.8-38.998-9.25,20.02-9.25,20.02,8.8,34.4,139.71-5.82,139.71-5.82s168.8-30.398,180-34.398,104.65,2.254,104.65,2.254l-5.45-17.818c-64.8-46.4-82.4-22.037-96-26.037s-11.2,5.6-14.4,6.401c-3.2,0.8-42.4-24.001-48.8-23.201z" />
        </g>

        <g id="g74" fill="#ec9961">
            <path id="path76"
                d="m136.13,28.837c-6.4,0.8-31.13-23.232-16.8,8.8,16.8,37.556-58.936,38.845-75.202,28-16.8-11.2,7.2,18.4,7.2,18.4,18.4,20.003-16,3.2-16,3.2-34.4-12.8-58.4,12.803-61.6,13.603s-8,4-8.8-2.403c-0.8-6.4-7.917-22.598-40.001,3.203-23.709,18.83-36.587-1.53-36.587-1.53l-4,7.13c-21.8-36.803-8.58,21.52-8.58,21.52,8.8,34.4,140.37-7.12,140.37-7.12s168.8-30.403,180-34.403,103.78,2.182,103.78,2.182l-5.38-18.327c-64.8-46.401-81.6-21.455-95.2-25.455s-11.2,5.6-14.4,6.4-42.4-24-48.8-23.2z" />
        </g>
        <g id="g78" fill="#eea575">
            <path id="path80"
                d="m137.44,30.583c-6.4,0.8-30.63-23.454-16.8,8.8,16.8,39.2-58.403,39.2-75.203,28s7.2,18.4,7.2,18.4c18.4,19.997-16,3.2-16,3.2-34.4-12.8-58.4,12.797-61.6,13.597s-8,4-8.8-2.4c-0.8-6.397-7.785-22.428-40,3.2-24.946,19.58-37.507-0.23-37.507-0.23l-4.4,5.63c-19.8-34.798-7.91,23.04-7.91,23.04,8.8,34.4,141.02-8.44,141.02-8.44s168.8-30.397,180-34.397,102.91,2.109,102.91,2.109l-5.31-18.837c-64.8-46.4-80.8-20.872-94.4-24.872s-11.2,5.6-14.4,6.4-42.4-24-48.8-23.2z" />
        </g>
        <g id="g82" fill="#f1b288">
            <path id="path84"
                d="m138.75,32.328c-6.4,0.8-32.37-22.651-16.8,8.8,19.2,38.8-58.404,39.2-75.204,28s7.2,18.4,7.2,18.4c18.4,20.002-16,3.2-16,3.2-34.4-12.8-58.4,12.802-61.6,13.602s-8,4-8.8-2.4c-0.8-6.402-7.654-22.265-40,3.2-26.182,20.33-38.436,1.05-38.436,1.05l-4.8,4.15c-18-33.202-7.24,24.54-7.24,24.54,8.8,34.4,141.68-9.74,141.68-9.74s168.8-30.402,180-34.402,102.03,2.036,102.03,2.036l-5.23-19.345c-64.8-46.4-80-20.291-93.6-24.291s-11.2,5.6-14.4,6.4-42.4-24-48.8-23.2z" />
        </g>
        <g id="g86" fill="#f3bf9c">
            <path id="path88"
                d="m140.06,34.073c-6.4,0.8-32.75-22.46-16.8,8.8,20.4,40.001-58.405,39.201-75.205,28.001s7.2,18.4,7.2,18.4c18.4,19.996-16,3.2-16,3.2-34.4-12.8-58.4,12.796-61.6,13.596s-8,4-8.8-2.4c-0.8-6.396-7.523-22.092-40,3.2-27.419,21.08-39.365,2.35-39.365,2.35l-5.2,2.65c-16-30.196-6.56,26.06-6.56,26.06,8.8,34.4,142.32-11.06,142.32-11.06s168.8-30.396,180-34.396,101.16,1.963,101.16,1.963l-5.16-19.854c-64.8-46.4-79.2-19.709-92.8-23.709-13.6-4.001-11.2,5.6-14.4,6.4s-42.4-24.001-48.8-23.201z" />
        </g>
        <g id="g90" fill="#f5ccb0">
            <path id="path92"
                d="m141.36,35.819c-6.4,0.8-33.84-21.875-16.8,8.8,22,39.6-58.396,39.2-75.196,28s7.2,18.4,7.2,18.4c18.4,20.001-16,3.2-16,3.2-34.4-12.8-58.4,12.801-61.6,13.601s-8,4-8.8-2.4c-0.8-6.401-7.391-21.928-40,3.2-28.655,21.82-40.294,3.64-40.294,3.64l-5.6,1.16c-14.4-28.401-5.89,27.56-5.89,27.56,8.8,34.4,142.98-12.36,142.98-12.36s168.8-30.401,180-34.401,100.3,1.891,100.3,1.891l-5.1-20.364c-64.8-46.4-78.4-19.127-92-23.127s-11.2,5.6-14.4,6.4-42.4-24-48.8-23.2z" />
        </g>
        <g id="g94" fill="#f8d8c4">
            <path id="path96"
                d="m142.67,37.565c-6.4,0.8-33.84-21.876-16.8,8.8,22,39.6-58.396,39.2-75.196,28s7.2,18.4,7.2,18.4c18.4,19.995-16,3.2-16,3.2-34.401-12.8-58.401,12.795-61.601,13.595s-8,4-8.8-2.4-7.259-21.755-40,3.2c-29.891,22.57-41.213,4.93-41.213,4.93l-6-0.33c-13.61-26.396-5.22,29.08-5.22,29.08,8.8,34.4,143.63-13.68,143.63-13.68s168.8-30.395,180-34.395,99.42,1.818,99.42,1.818l-5.01-20.873c-64.81-46.4-77.61-18.545-91.21-22.545s-11.2,5.6-14.4,6.4-42.4-24-48.8-23.2z" />
        </g>

        <g id="g98" fill="#fae5d7">
            <path id="path100"
                d="m143.98,39.31c-6.4,0.8-33.45-22.087-16.8,8.8,22,40.8-58.397,39.2-75.197,28s7.2,18.4,7.2,18.4c18.4,20-16,3.2-16,3.2-34.4-12.8-58.4,12.8-61.6,13.6-3.201,0.8-8.001,4-8.801-2.4s-7.128-21.592-40,3.2c-31.127,23.31-42.142,6.22-42.142,6.22l-6.4-1.82c-13-24-4.55,30.58-4.55,30.58,8.8,34.4,144.29-14.98,144.29-14.98s168.8-30.4,180-34.4,98.55,1.746,98.55,1.746l-4.95-21.382c-64.8-46.401-76.8-17.964-90.4-21.964s-11.2,5.6-14.4,6.4-42.4-24-48.8-23.2z" />
        </g>
        <g id="g102" fill="#fcf2eb">
            <path id="path104"
                d="m145.29,41.055c-6.4,0.8-32.37-22.644-16.8,8.8,21.2,42.801-58.398,39.201-75.198,28.001s7.2,18.4,7.2,18.4c18.4,20.004-16,3.2-16,3.2-34.4-12.8-58.4,12.804-61.6,13.604s-8,4-8.8-2.4-6.997-21.428-40,3.2c-32.365,24.05-43.072,7.5-43.072,7.5l-6.8-3.3c-12.8-23.204-3.87,32.09-3.87,32.09,8.8,34.4,144.94-16.29,144.94-16.29s168.8-30.4,180-34.404c11.2-4,97.67,1.674,97.67,1.674l-4.87-21.893c-64.8-46.4-76-17.381-89.6-21.381-13.6-4.001-11.2,5.6-14.4,6.4s-42.4-24.001-48.8-23.201z" />
        </g>
        <g id="g106" fill="#FFF">
            <path id="path108"
                d="m-115.8,119.6c-12.8-22-3.2,33.6-3.2,33.6,8.8,34.4,145.6-17.6,145.6-17.6s168.8-30.4,180-34.4,96.8,1.6,96.8,1.6l-4.8-22.4c-64.8-46.4-75.2-16.8-88.8-20.8s-11.2,5.6-14.4,6.4-42.4-24-48.8-23.2-31.62-23.007-16.8,8.8c22.23,47.707-60.759,37.627-75.2,28-16.8-11.2,7.2,18.4,7.2,18.4,18.4,20-16,3.2-16,3.2-34.4-12.8-58.4,12.8-61.6,13.6s-8,4-8.8-2.4-6.865-21.256-40,3.2c-33.6,24.8-44,8.8-44,8.8l-7.2-4.8z" />
        </g>
        <g id="g110" fill="#000">
            <path id="path112"
                d="m-74.2,149.6s-7.2,11.6,13.6,24.8c0,0,1.4,1.4-16.6-2.8,0,0-6.2-2-7.8-12.4,0,0-4.8-4.4-9.6-10s20.4,0.4,20.4,0.4z" />
        </g>
        <g id="g114" fill="#CCC">
            <path id="path116"
                d="m65.8,102s17.698,26.82,17.1,31.6c-1.3,10.4-1.5,20,1.7,24,3.201,4,12.001,37.2,12.001,37.2s-0.4,1.2,11.999-36.8c0,0,11.6-16-8.4-34.4,0,0-35.2-28.8-34.4-21.6z" />
        </g>
        <g id="g118" fill="#000">
            <path id="path120"
                d="m-54.2,176.4s11.2,7.2-3.2,38.4l6.4-2.4s-0.8,11.2-4,13.6l7.2-3.2s4.8,8,0.8,12.8c0,0,16.8,8,16,14.4,0,0,6.4-8,2.4-14.4s-11.2-2.4-10.4-20.8l-8.8,3.2s5.6-8.8,5.6-15.2l-8,2.4s15.469-26.58,4.8-28c-6-0.8-8.8-0.8-8.8-0.8z" />
        </g>
        <!-- <g id="g122" fill="#CCC">
            <path id="path124" d="m-21.8,193.2s2.8-4.4,0-3.6-34,15.6-40,25.2c0,0,34.4-24.4,40-21.6z" />
        </g>
        <g id="g126" fill="#CCC">
            <path id="path128" d="m-11.4,201.2s2.8-4.4,0-3.6-34,15.6-40,25.2c0,0,34.4-24.4,40-21.6z" />
        </g>
        <g id="g130" fill="#CCC">
            <path id="path132" d="m1.8,186s2.8-4.4,0-3.6-34,15.6-40,25.2c0,0,34.4-24.4,40-21.6z" />
        </g> -->
    </g>
</svg>